<mxfile host="Electron" agent="Mozilla/5.0 (Windows NT 10.0; Win64; x64) AppleWebKit/537.36 (KHTML, like Gecko) draw.io/24.7.17 Chrome/128.0.6613.36 Electron/32.0.1 Safari/537.36" version="24.7.17">
  <diagram id="tKd-j2QoXDF06WTp_H1R" name="Functional Profile">
    <mxGraphModel dx="1098" dy="892" grid="1" gridSize="10" guides="1" tooltips="1" connect="1" arrows="1" fold="1" page="1" pageScale="1" pageWidth="1169" pageHeight="827" math="0" shadow="0">
      <root>
        <mxCell id="0" />
        <mxCell id="1" parent="0" />
        <mxCell id="LD4AkKPJEX8BpILxFHVp-9" value="" style="rounded=0;orthogonalLoop=1;jettySize=auto;html=1;fontSize=12;endArrow=none;endFill=0;" parent="1" source="LD4AkKPJEX8BpILxFHVp-6" target="LD4AkKPJEX8BpILxFHVp-8" edge="1">
          <mxGeometry relative="1" as="geometry" />
        </mxCell>
        <mxCell id="LD4AkKPJEX8BpILxFHVp-11" value="" style="rounded=0;orthogonalLoop=1;jettySize=auto;html=1;fontSize=12;endArrow=none;endFill=0;" parent="1" source="LD4AkKPJEX8BpILxFHVp-6" target="LD4AkKPJEX8BpILxFHVp-10" edge="1">
          <mxGeometry relative="1" as="geometry" />
        </mxCell>
        <mxCell id="LD4AkKPJEX8BpILxFHVp-28" value="" style="edgeStyle=none;rounded=0;orthogonalLoop=1;jettySize=auto;html=1;strokeColor=default;fontSize=12;endArrow=none;endFill=0;" parent="1" source="LD4AkKPJEX8BpILxFHVp-6" target="LD4AkKPJEX8BpILxFHVp-27" edge="1">
          <mxGeometry relative="1" as="geometry" />
        </mxCell>
        <mxCell id="LD4AkKPJEX8BpILxFHVp-6" value="Functional Profile" style="whiteSpace=wrap;html=1;align=center;fontSize=15;fillColor=#d5e8d4;strokeColor=#82b366;fontStyle=1" parent="1" vertex="1">
          <mxGeometry x="230" y="430" width="380" height="60" as="geometry" />
        </mxCell>
        <mxCell id="LD4AkKPJEX8BpILxFHVp-8" value="Classification" style="ellipse;whiteSpace=wrap;html=1;fillColor=#f5f5f5;fontColor=#333333;strokeColor=#666666;fontSize=14;" parent="1" vertex="1">
          <mxGeometry x="780" y="400" width="130" height="40" as="geometry" />
        </mxCell>
        <mxCell id="LD4AkKPJEX8BpILxFHVp-10" value="Release Notes" style="ellipse;whiteSpace=wrap;html=1;fillColor=#f5f5f5;fontColor=#333333;strokeColor=#666666;fontSize=14;" parent="1" vertex="1">
          <mxGeometry x="625" y="350" width="130" height="40" as="geometry" />
        </mxCell>
        <mxCell id="LD4AkKPJEX8BpILxFHVp-30" value="" style="edgeStyle=none;rounded=0;orthogonalLoop=1;jettySize=auto;html=1;strokeColor=default;fontSize=12;endArrow=none;endFill=0;" parent="1" source="LD4AkKPJEX8BpILxFHVp-22" target="LD4AkKPJEX8BpILxFHVp-29" edge="1">
          <mxGeometry relative="1" as="geometry" />
        </mxCell>
        <mxCell id="LD4AkKPJEX8BpILxFHVp-33" value="" style="edgeStyle=none;rounded=0;orthogonalLoop=1;jettySize=auto;html=1;strokeColor=default;fontSize=12;endArrow=none;endFill=0;" parent="1" source="LD4AkKPJEX8BpILxFHVp-22" target="LD4AkKPJEX8BpILxFHVp-32" edge="1">
          <mxGeometry relative="1" as="geometry" />
        </mxCell>
        <mxCell id="LD4AkKPJEX8BpILxFHVp-36" value="" style="edgeStyle=none;rounded=0;orthogonalLoop=1;jettySize=auto;html=1;strokeColor=default;fontSize=12;endArrow=none;endFill=0;" parent="1" source="LD4AkKPJEX8BpILxFHVp-22" target="LD4AkKPJEX8BpILxFHVp-35" edge="1">
          <mxGeometry relative="1" as="geometry" />
        </mxCell>
        <mxCell id="LD4AkKPJEX8BpILxFHVp-39" value="" style="edgeStyle=none;rounded=0;orthogonalLoop=1;jettySize=auto;html=1;strokeColor=default;fontSize=12;endArrow=none;endFill=0;" parent="1" source="LD4AkKPJEX8BpILxFHVp-22" target="LD4AkKPJEX8BpILxFHVp-38" edge="1">
          <mxGeometry relative="1" as="geometry" />
        </mxCell>
        <mxCell id="LD4AkKPJEX8BpILxFHVp-43" value="" style="edgeStyle=none;rounded=0;orthogonalLoop=1;jettySize=auto;html=1;strokeColor=default;fontSize=12;endArrow=none;endFill=0;" parent="1" source="LD4AkKPJEX8BpILxFHVp-22" target="LD4AkKPJEX8BpILxFHVp-42" edge="1">
          <mxGeometry relative="1" as="geometry" />
        </mxCell>
        <mxCell id="LD4AkKPJEX8BpILxFHVp-22" value="Data Point" style="whiteSpace=wrap;html=1;align=center;fontSize=15;fillColor=#dae8fc;strokeColor=#6c8ebf;fontStyle=1" parent="1" vertex="1">
          <mxGeometry x="290" y="582" width="260" height="60" as="geometry" />
        </mxCell>
        <mxCell id="LD4AkKPJEX8BpILxFHVp-27" value="Descriptions" style="ellipse;whiteSpace=wrap;html=1;fillColor=#f5f5f5;fontColor=#333333;strokeColor=#666666;fontSize=14;" parent="1" vertex="1">
          <mxGeometry x="780" y="480" width="150" height="50" as="geometry" />
        </mxCell>
        <mxCell id="LD4AkKPJEX8BpILxFHVp-29" value="Name" style="ellipse;whiteSpace=wrap;html=1;fillColor=#f5f5f5;fontColor=#333333;strokeColor=#666666;fontSize=14;" parent="1" vertex="1">
          <mxGeometry x="60" y="592.5" width="120" height="39" as="geometry" />
        </mxCell>
        <mxCell id="LD4AkKPJEX8BpILxFHVp-31" style="edgeStyle=none;rounded=0;orthogonalLoop=1;jettySize=auto;html=1;exitX=0.5;exitY=1;exitDx=0;exitDy=0;strokeColor=default;fontSize=12;" parent="1" source="LD4AkKPJEX8BpILxFHVp-22" target="LD4AkKPJEX8BpILxFHVp-22" edge="1">
          <mxGeometry relative="1" as="geometry" />
        </mxCell>
        <mxCell id="LD4AkKPJEX8BpILxFHVp-32" value="Physical Unit" style="ellipse;whiteSpace=wrap;html=1;fillColor=#f5f5f5;fontColor=#333333;strokeColor=#666666;fontSize=14;" parent="1" vertex="1">
          <mxGeometry x="120" y="730" width="120" height="40" as="geometry" />
        </mxCell>
        <mxCell id="LD4AkKPJEX8BpILxFHVp-35" value="Data Type" style="ellipse;whiteSpace=wrap;html=1;fillColor=#f5f5f5;fontColor=#333333;strokeColor=#666666;fontSize=14;" parent="1" vertex="1">
          <mxGeometry x="250" y="770" width="120" height="40" as="geometry" />
        </mxCell>
        <mxCell id="LD4AkKPJEX8BpILxFHVp-38" value="Read / Write" style="ellipse;whiteSpace=wrap;html=1;fillColor=#f5f5f5;fontColor=#333333;strokeColor=#666666;fontSize=14;" parent="1" vertex="1">
          <mxGeometry x="410" y="770" width="120" height="40" as="geometry" />
        </mxCell>
        <mxCell id="LD4AkKPJEX8BpILxFHVp-42" value="Descriptions" style="ellipse;whiteSpace=wrap;html=1;fillColor=#f5f5f5;fontColor=#333333;strokeColor=#666666;fontSize=14;" parent="1" vertex="1">
          <mxGeometry x="60" y="660" width="150" height="50" as="geometry" />
        </mxCell>
        <mxCell id="LD4AkKPJEX8BpILxFHVp-44" value="Generic&lt;br&gt;Attributes" style="ellipse;whiteSpace=wrap;html=1;fillColor=#dae8fc;strokeColor=#6c8ebf;fontSize=14;" parent="1" vertex="1">
          <mxGeometry x="790" y="591.5" width="120" height="40" as="geometry" />
        </mxCell>
        <mxCell id="Q_Q-4k93iJrwOQs1B63T-6" value="1" style="edgeStyle=orthogonalEdgeStyle;rounded=0;orthogonalLoop=1;jettySize=auto;html=1;strokeColor=default;fontSize=15;endArrow=none;endFill=0;exitX=0.5;exitY=0;exitDx=0;exitDy=0;" parent="1" target="LD4AkKPJEX8BpILxFHVp-6" edge="1">
          <mxGeometry relative="1" as="geometry">
            <mxPoint x="420" y="520" as="sourcePoint" />
          </mxGeometry>
        </mxCell>
        <mxCell id="Q_Q-4k93iJrwOQs1B63T-7" value="N" style="edgeStyle=orthogonalEdgeStyle;rounded=0;orthogonalLoop=1;jettySize=auto;html=1;strokeColor=default;fontSize=15;endArrow=none;endFill=0;" parent="1" source="Q_Q-4k93iJrwOQs1B63T-5" target="LD4AkKPJEX8BpILxFHVp-22" edge="1">
          <mxGeometry relative="1" as="geometry" />
        </mxCell>
        <mxCell id="Q_Q-4k93iJrwOQs1B63T-5" value="contains" style="shape=rhombus;perimeter=rhombusPerimeter;whiteSpace=wrap;html=1;align=center;fontSize=15;fillColor=#fff2cc;strokeColor=#d6b656;" parent="1" vertex="1">
          <mxGeometry x="360" y="510" width="120" height="45" as="geometry" />
        </mxCell>
        <mxCell id="SlZpY4ukqjDHXJNbcJtP-1" value="1" style="edgeStyle=orthogonalEdgeStyle;rounded=0;orthogonalLoop=1;jettySize=auto;html=1;strokeColor=default;fontSize=15;endArrow=none;endFill=0;entryX=0;entryY=0.5;entryDx=0;entryDy=0;exitX=1;exitY=0.5;exitDx=0;exitDy=0;" parent="1" source="LD4AkKPJEX8BpILxFHVp-22" target="SlZpY4ukqjDHXJNbcJtP-2" edge="1">
          <mxGeometry relative="1" as="geometry">
            <mxPoint x="570" y="626.5" as="sourcePoint" />
            <mxPoint x="380" y="726.5" as="targetPoint" />
          </mxGeometry>
        </mxCell>
        <mxCell id="SlZpY4ukqjDHXJNbcJtP-2" value="contains" style="shape=rhombus;perimeter=rhombusPerimeter;whiteSpace=wrap;html=1;align=center;fontSize=15;fillColor=#fff2cc;strokeColor=#d6b656;" parent="1" vertex="1">
          <mxGeometry x="640" y="589" width="100" height="45" as="geometry" />
        </mxCell>
        <mxCell id="SlZpY4ukqjDHXJNbcJtP-3" value="N" style="edgeStyle=orthogonalEdgeStyle;rounded=0;orthogonalLoop=1;jettySize=auto;html=1;strokeColor=default;fontSize=15;endArrow=none;endFill=0;exitX=1;exitY=0.5;exitDx=0;exitDy=0;entryX=0;entryY=0.5;entryDx=0;entryDy=0;" parent="1" source="SlZpY4ukqjDHXJNbcJtP-2" target="LD4AkKPJEX8BpILxFHVp-44" edge="1">
          <mxGeometry relative="1" as="geometry">
            <mxPoint x="780.0000410382822" y="624.0263157894738" as="targetPoint" />
          </mxGeometry>
        </mxCell>
        <mxCell id="NT6WLYVS-nXMuh7eGUnV-1" value="Name" style="ellipse;whiteSpace=wrap;html=1;fillColor=#f5f5f5;fontColor=#333333;strokeColor=#666666;fontSize=14;" parent="1" vertex="1">
          <mxGeometry x="55" y="375" width="130" height="40" as="geometry" />
        </mxCell>
        <mxCell id="NT6WLYVS-nXMuh7eGUnV-2" value="" style="endArrow=none;html=1;rounded=0;fontSize=14;" parent="1" source="LD4AkKPJEX8BpILxFHVp-6" target="NT6WLYVS-nXMuh7eGUnV-1" edge="1">
          <mxGeometry width="50" height="50" relative="1" as="geometry">
            <mxPoint x="440" y="350" as="sourcePoint" />
            <mxPoint x="490" y="300" as="targetPoint" />
          </mxGeometry>
        </mxCell>
        <mxCell id="NT6WLYVS-nXMuh7eGUnV-3" value="Device" style="whiteSpace=wrap;html=1;align=center;fontSize=15;fillColor=#f5f5f5;strokeColor=#666666;fontStyle=1;fontColor=#333333;" parent="1" vertex="1">
          <mxGeometry x="230" y="111" width="380" height="60" as="geometry" />
        </mxCell>
        <mxCell id="NT6WLYVS-nXMuh7eGUnV-5" value="Device Information" style="ellipse;whiteSpace=wrap;html=1;fillColor=#f5f5f5;fontColor=#333333;strokeColor=#666666;fontSize=14;" parent="1" vertex="1">
          <mxGeometry x="250" y="21" width="130" height="40" as="geometry" />
        </mxCell>
        <mxCell id="NT6WLYVS-nXMuh7eGUnV-8" value="TransportService" style="ellipse;whiteSpace=wrap;html=1;fillColor=#f5f5f5;fontColor=#333333;strokeColor=#666666;fontSize=14;" parent="1" vertex="1">
          <mxGeometry x="640" y="41" width="130" height="40" as="geometry" />
        </mxCell>
        <mxCell id="NT6WLYVS-nXMuh7eGUnV-11" value="Descriptions" style="ellipse;whiteSpace=wrap;html=1;fillColor=#f5f5f5;fontColor=#333333;strokeColor=#666666;fontSize=14;" parent="1" vertex="1">
          <mxGeometry x="440" y="21" width="130" height="40" as="geometry" />
        </mxCell>
        <mxCell id="NT6WLYVS-nXMuh7eGUnV-13" value="" style="endArrow=none;html=1;rounded=0;fontSize=14;" parent="1" source="NT6WLYVS-nXMuh7eGUnV-5" target="NT6WLYVS-nXMuh7eGUnV-3" edge="1">
          <mxGeometry width="50" height="50" relative="1" as="geometry">
            <mxPoint x="163.53781238357715" y="192.30626548758755" as="sourcePoint" />
            <mxPoint x="240" y="180.23076923076928" as="targetPoint" />
          </mxGeometry>
        </mxCell>
        <mxCell id="NT6WLYVS-nXMuh7eGUnV-16" value="" style="endArrow=none;html=1;rounded=0;fontSize=14;" parent="1" source="NT6WLYVS-nXMuh7eGUnV-8" target="NT6WLYVS-nXMuh7eGUnV-3" edge="1">
          <mxGeometry width="50" height="50" relative="1" as="geometry">
            <mxPoint x="399.86436985593014" y="30.943916409313942" as="sourcePoint" />
            <mxPoint x="422.5" y="121" as="targetPoint" />
          </mxGeometry>
        </mxCell>
        <mxCell id="NT6WLYVS-nXMuh7eGUnV-19" value="" style="endArrow=none;html=1;rounded=0;fontSize=14;" parent="1" source="NT6WLYVS-nXMuh7eGUnV-11" target="NT6WLYVS-nXMuh7eGUnV-3" edge="1">
          <mxGeometry width="50" height="50" relative="1" as="geometry">
            <mxPoint x="742.0771258683176" y="126.01559141629355" as="sourcePoint" />
            <mxPoint x="620" y="135.79999999999995" as="targetPoint" />
          </mxGeometry>
        </mxCell>
        <mxCell id="NT6WLYVS-nXMuh7eGUnV-20" value="Interface Info" style="ellipse;whiteSpace=wrap;html=1;fillColor=#ffe6cc;strokeColor=#d79b00;fontSize=14;" parent="1" vertex="1">
          <mxGeometry x="640" y="720" width="160" height="60" as="geometry" />
        </mxCell>
        <mxCell id="NT6WLYVS-nXMuh7eGUnV-21" value="" style="endArrow=none;html=1;rounded=0;fontSize=14;" parent="1" source="LD4AkKPJEX8BpILxFHVp-22" target="NT6WLYVS-nXMuh7eGUnV-20" edge="1">
          <mxGeometry width="50" height="50" relative="1" as="geometry">
            <mxPoint x="440" y="470" as="sourcePoint" />
            <mxPoint x="490" y="420" as="targetPoint" />
          </mxGeometry>
        </mxCell>
        <mxCell id="NT6WLYVS-nXMuh7eGUnV-24" value="contains" style="shape=rhombus;perimeter=rhombusPerimeter;whiteSpace=wrap;html=1;align=center;fontSize=15;fillColor=#fff2cc;strokeColor=#d6b656;" parent="1" vertex="1">
          <mxGeometry x="360" y="190" width="120" height="45" as="geometry" />
        </mxCell>
        <mxCell id="NT6WLYVS-nXMuh7eGUnV-25" value="1" style="endArrow=none;html=1;rounded=0;fontSize=14;" parent="1" source="NT6WLYVS-nXMuh7eGUnV-24" target="NT6WLYVS-nXMuh7eGUnV-3" edge="1">
          <mxGeometry width="50" height="50" relative="1" as="geometry">
            <mxPoint x="440" y="470" as="sourcePoint" />
            <mxPoint x="490" y="420" as="targetPoint" />
          </mxGeometry>
        </mxCell>
        <mxCell id="NT6WLYVS-nXMuh7eGUnV-26" value="N" style="edgeStyle=orthogonalEdgeStyle;rounded=0;orthogonalLoop=1;jettySize=auto;html=1;strokeColor=default;fontSize=15;endArrow=none;endFill=0;" parent="1" target="LD4AkKPJEX8BpILxFHVp-6" edge="1">
          <mxGeometry relative="1" as="geometry">
            <mxPoint x="420" y="400" as="sourcePoint" />
            <mxPoint x="430.0666666666666" y="612" as="targetPoint" />
            <Array as="points">
              <mxPoint x="420" y="400" />
            </Array>
          </mxGeometry>
        </mxCell>
        <mxCell id="NT6WLYVS-nXMuh7eGUnV-27" value="Release Notes" style="ellipse;whiteSpace=wrap;html=1;fillColor=#f5f5f5;fontColor=#333333;strokeColor=#666666;fontSize=14;" parent="1" vertex="1">
          <mxGeometry x="70" y="51" width="130" height="40" as="geometry" />
        </mxCell>
        <mxCell id="NT6WLYVS-nXMuh7eGUnV-28" value="" style="endArrow=none;html=1;rounded=0;fontSize=14;" parent="1" source="NT6WLYVS-nXMuh7eGUnV-27" target="NT6WLYVS-nXMuh7eGUnV-3" edge="1">
          <mxGeometry width="50" height="50" relative="1" as="geometry">
            <mxPoint x="399.86436985593014" y="30.943916409313942" as="sourcePoint" />
            <mxPoint x="422.5" y="121" as="targetPoint" />
          </mxGeometry>
        </mxCell>
        <mxCell id="9fh5fi8lEidq-qYcQSyO-1" value="Configuration" style="ellipse;whiteSpace=wrap;html=1;fillColor=#f5f5f5;fontColor=#333333;strokeColor=#666666;fontSize=14;" parent="1" vertex="1">
          <mxGeometry x="690" y="121" width="130" height="40" as="geometry" />
        </mxCell>
        <mxCell id="9fh5fi8lEidq-qYcQSyO-2" value="" style="endArrow=none;html=1;rounded=0;fontSize=14;exitX=0;exitY=0.5;exitDx=0;exitDy=0;entryX=1;entryY=0.5;entryDx=0;entryDy=0;" parent="1" source="9fh5fi8lEidq-qYcQSyO-1" target="NT6WLYVS-nXMuh7eGUnV-3" edge="1">
          <mxGeometry width="50" height="50" relative="1" as="geometry">
            <mxPoint x="650" y="201" as="sourcePoint" />
            <mxPoint x="610" y="156" as="targetPoint" />
          </mxGeometry>
        </mxCell>
        <mxCell id="DmvwjcFs69PPMvydE3hG-1" value="Interface" style="whiteSpace=wrap;html=1;align=center;fontSize=15;fillColor=#ffe6cc;strokeColor=#d79b00;fontStyle=1" vertex="1" parent="1">
          <mxGeometry x="232" y="270" width="380" height="60" as="geometry" />
        </mxCell>
        <mxCell id="DmvwjcFs69PPMvydE3hG-2" value="N" style="edgeStyle=orthogonalEdgeStyle;rounded=0;orthogonalLoop=1;jettySize=auto;html=1;strokeColor=default;fontSize=15;endArrow=none;endFill=0;entryX=0.5;entryY=0;entryDx=0;entryDy=0;" edge="1" parent="1" source="NT6WLYVS-nXMuh7eGUnV-24" target="DmvwjcFs69PPMvydE3hG-1">
          <mxGeometry relative="1" as="geometry">
            <mxPoint x="430" y="350" as="sourcePoint" />
            <mxPoint x="430" y="440" as="targetPoint" />
          </mxGeometry>
        </mxCell>
        <mxCell id="DmvwjcFs69PPMvydE3hG-4" value="contains" style="shape=rhombus;perimeter=rhombusPerimeter;whiteSpace=wrap;html=1;align=center;fontSize=15;fillColor=#fff2cc;strokeColor=#d6b656;" vertex="1" parent="1">
          <mxGeometry x="360" y="352.5" width="120" height="45" as="geometry" />
        </mxCell>
        <mxCell id="DmvwjcFs69PPMvydE3hG-6" value="1" style="endArrow=none;html=1;rounded=0;fontSize=14;exitX=0.5;exitY=0;exitDx=0;exitDy=0;entryX=0.5;entryY=1;entryDx=0;entryDy=0;" edge="1" parent="1" source="DmvwjcFs69PPMvydE3hG-4" target="DmvwjcFs69PPMvydE3hG-1">
          <mxGeometry width="50" height="50" relative="1" as="geometry">
            <mxPoint x="452" y="352.5" as="sourcePoint" />
            <mxPoint x="452" y="330" as="targetPoint" />
          </mxGeometry>
        </mxCell>
      </root>
    </mxGraphModel>
  </diagram>
</mxfile>
